<svg width="100" height="100" viewBox="0 0 100 100" fill="none"
    xmlns="http://www.w3.org/2000/svg">
    <circle cx="50" cy="50" r="50" fill="url(#paint0_linear_3_11)"/>
    <path d="M51.5 49.7188H39.9688L39.9062 44.875H50.375C52.1042 44.875 53.6146 44.5833 54.9062 44C56.1979 43.4167 57.1979 42.5833 57.9062 41.5C58.6354 40.3958 59 39.0833 59 37.5625C59 35.8958 58.6771 34.5417 58.0312 33.5C57.4062 32.4375 56.4375 31.6667 55.125 31.1875C53.8333 30.6875 52.1875 30.4375 50.1875 30.4375H41.3125V71H35.2812V25.5H50.1875C52.5208 25.5 54.6042 25.7396 56.4375 26.2188C58.2708 26.6771 59.8229 27.4062 61.0938 28.4062C62.3854 29.3854 63.3646 30.6354 64.0312 32.1562C64.6979 33.6771 65.0312 35.5 65.0312 37.625C65.0312 39.5 64.5521 41.1979 63.5938 42.7188C62.6354 44.2188 61.3021 45.4479 59.5938 46.4062C57.9062 47.3646 55.9271 47.9792 53.6562 48.25L51.5 49.7188ZM51.2188 71H37.5938L41 66.0938H51.2188C53.1354 66.0938 54.7604 65.7604 56.0938 65.0938C57.4479 64.4271 58.4792 63.4896 59.1875 62.2812C59.8958 61.0521 60.25 59.6042 60.25 57.9375C60.25 56.25 59.9479 54.7917 59.3438 53.5625C58.7396 52.3333 57.7917 51.3854 56.5 50.7188C55.2083 50.0521 53.5417 49.7188 51.5 49.7188H42.9062L42.9688 44.875H54.7188L56 46.625C58.1875 46.8125 60.0417 47.4375 61.5625 48.5C63.0833 49.5417 64.2396 50.875 65.0312 52.5C65.8438 54.125 66.25 55.9167 66.25 57.875C66.25 60.7083 65.625 63.1042 64.375 65.0625C63.1458 67 61.4062 68.4792 59.1562 69.5C56.9062 70.5 54.2604 71 51.2188 71Z" fill="#537E62"/>
    <defs>
        <linearGradient id="paint0_linear_3_11" x1="50" y1="0" x2="50" y2="100" gradientUnits="userSpaceOnUse">
            <stop stop-color="#71F3F7"/>
            <stop offset="1" stop-color="#73F7A1"/>
        </linearGradient>
    </defs>
</svg>
