<svg width="100" height="100" fill="none" xmlns="http://www.w3.org/2000/svg">
    <circle cx="50" cy="50" r="50" fill="url(#a)"/>
    <path d="M52 50H40v-5h10l5-1 3-2 1-4-1-4-3-3-5-1h-9v41h-6V26h21l5 2 3 4 1 6-1 5-4 3-6 2-2 2Zm-1 21H38l3-5h10l5-1 3-3 1-4-1-4c0-2-1-3-2-3l-5-1h-9v-5h12l1 2c2 0 4 0 6 2l3 4 1 5c0 3 0 5-2 7l-5 5-8 1Z" fill="#537E62"/>
    <defs>
      <linearGradient id="a" x1="50" y1="0" x2="50" y2="100" gradientUnits="userSpaceOnUse">
        <stop stop-color="#71F3F7"/>
        <stop offset="1" stop-color="#73F7A1"/>
      </linearGradient>
    </defs>
  </svg>