<svg xmlns="http://www.w3.org/2000/svg" viewBox="0 0 299.2 299.2" style="enable-background:new 0 0 299.215 299.215" xml:space="preserve">
  <path fill="#23a350" d="M22 0c-2 0-4 2-4 5l23 260c0 3 3 6 5 6l99 28h9l99-28c3 0 5-3 5-6L281 5c1-3-1-5-4-5H22zm210 60-1 9v7l-1 9-1 3H108c-3 0-5 3-5 5l2 24c1 3 3 5 6 5h111c2 0 4 2 4 5l-1 9-7 77v8l-5 4-59 16-4 2-5-2-59-16c-2-1-5-3-5-6l-4-42c0-3 2-5 5-5h23c3 0 5 2 6 5l1 16c0 3 3 6 5 7l28 7 4 1 5-1 28-7c2-1 5-4 5-7l3-33c0-2-2-5-5-5H81c-3 0-6-2-6-5l-7-81-1-9c0-3 2-5 5-5h155c3 0 5 2 5 5z"/>
</svg>