<svg xmlns="http://www.w3.org/2000/svg" width="442.2" height="442.2" style="enable-background:new 0 0 442.246 442.246" xml:space="preserve">
  <g fill="#23a350">
    <path d="M410 32c-43-43-114-43-157 0l-85 85c29-8 61-6 88 7l44-44a44 44 0 0 1 62 62l-55 55-37 37a44 44 0 0 1-62 0l-47 47c11 11 24 20 37 25a112 112 0 0 0 120-25l57-57 35-35c43-43 43-113 0-157z"/>
    <path d="m184 320-42 42a44 44 0 0 1-62-62l92-92c17-17 45-17 62 0l47-47a111 111 0 0 0-157 0l-92 92c-43 43-43 114 0 157 44 43 114 43 157 0l83-84c-42 10-52 8-88-6z"/>
  </g>
</svg>